<?xml version="1.0" standalone="no"?>
<!DOCTYPE svg PUBLIC "-//W3C//DTD SVG 20010904//EN"
 "http://www.w3.org/TR/2001/REC-SVG-20010904/DTD/svg10.dtd">
<svg version="1.0" xmlns="http://www.w3.org/2000/svg"
 width="879.000000pt" height="909.000000pt" viewBox="0 0 879.000000 909.000000"
 preserveAspectRatio="xMidYMid meet">

<g transform="translate(0.000000,909.000000) scale(0.100000,-0.100000)"
fill="#000000" stroke="none">
<path d="M5305 9083 c-497 -39 -796 -105 -1161 -254 -576 -237 -1123 -724
-1443 -1286 -181 -318 -311 -719 -351 -1078 -14 -132 -12 -376 5 -480 8 -50
25 -123 38 -162 l23 -72 -32 -80 c-63 -157 -85 -248 -91 -371 -5 -109 -3 -120
26 -210 38 -119 86 -200 174 -296 64 -69 71 -81 93 -161 79 -288 39 -579 -120
-878 -147 -277 -313 -446 -510 -520 -78 -29 -171 -41 -209 -26 -41 16 -31 1
38 -57 189 -161 415 -227 775 -227 172 0 205 3 278 23 114 31 194 69 275 130
37 28 67 46 67 39 0 -42 -153 -293 -229 -378 -41 -44 -364 -210 -1006 -517
l-361 -172 -214 -54 c-325 -81 -430 -129 -552 -250 -122 -122 -328 -474 -461
-791 -122 -289 -357 -898 -357 -923 1 -30 -9 -53 213 508 274 691 435 998 627
1191 117 119 229 174 467 231 93 22 208 52 257 68 49 15 95 26 103 23 16 -6
103 -150 143 -238 15 -33 49 -105 75 -160 26 -55 86 -190 135 -300 247 -560
406 -894 487 -1020 61 -94 157 -219 217 -282 87 -93 69 -57 -35 70 -192 233
-283 408 -664 1267 -103 232 -258 559 -290 611 -15 24 -34 50 -43 56 -8 7 -14
14 -11 16 2 1 82 40 177 86 l174 83 35 -33 c40 -39 117 -192 318 -634 247
-540 279 -607 439 -905 88 -162 170 -313 184 -335 76 -123 246 -335 269 -335
11 0 3 15 -23 47 -135 165 -237 316 -334 494 -213 395 -291 548 -371 729 -45
102 -113 250 -151 330 -39 80 -86 181 -105 225 -63 146 -153 319 -194 374 -22
29 -39 54 -37 56 2 1 68 32 147 69 106 48 148 63 160 56 59 -31 176 -199 269
-385 82 -166 482 -1012 482 -1021 0 -3 29 -63 65 -134 142 -284 281 -471 466
-625 l86 -72 -75 -69 c-58 -53 -72 -70 -58 -72 10 -2 21 0 25 5 21 31 198 174
248 201 51 27 72 32 126 32 164 0 486 -99 683 -211 31 -18 66 -29 89 -29 l37
0 -36 48 c-126 168 -367 533 -473 717 -82 140 -113 206 -156 330 -20 55 -70
192 -111 304 -42 113 -74 206 -73 207 5 5 168 43 237 56 96 17 391 17 490 -1
341 -59 753 -225 900 -362 26 -24 26 -25 18 -134 -4 -61 -14 -177 -23 -260 -8
-82 -18 -177 -21 -210 -13 -140 -82 -432 -150 -633 -16 -50 -18 -70 -5 -56 13
12 102 311 134 449 29 121 59 364 82 665 19 244 31 785 19 865 l-9 60 -5 -65
-5 -65 -31 45 c-67 98 -70 204 -9 390 50 156 50 154 80 134 14 -9 60 -65 104
-124 83 -113 91 -121 266 -251 60 -45 144 -112 185 -148 305 -265 288 -248
296 -299 9 -58 -1 -312 -16 -412 -43 -283 -198 -632 -491 -1107 -48 -79 -83
-143 -79 -143 13 0 74 92 174 263 195 334 274 498 351 732 67 204 78 271 79
496 l1 197 35 -29 c19 -16 64 -50 100 -76 36 -25 85 -62 108 -81 l44 -35 -7
-91 c-19 -268 -49 -460 -105 -667 -61 -225 -121 -341 -311 -600 -48 -65 -74
-109 -65 -109 15 0 126 147 211 278 160 250 250 572 289 1043 l11 137 140
-108 c171 -132 171 -131 155 -299 -13 -147 -71 -437 -111 -555 -37 -111 -119
-281 -194 -399 -58 -93 -60 -97 -46 -97 26 0 213 345 255 472 36 105 104 453
112 566 8 107 0 104 123 45 131 -63 279 -223 356 -385 57 -120 64 -161 75
-423 14 -321 19 -334 15 -35 -4 282 -14 343 -74 465 -101 202 -269 367 -433
425 -41 14 -54 23 -56 42 -9 69 -25 84 -392 358 -179 134 -328 255 -485 394
-55 48 -124 107 -154 130 l-53 41 5 123 c3 68 7 126 10 128 3 3 34 -16 69 -41
120 -89 352 -184 552 -227 79 -17 136 -22 263 -22 89 -1 165 2 168 6 4 4 -24
42 -62 85 -219 247 -301 392 -347 615 -19 93 -20 147 -3 152 524 161 760 268
1057 481 125 89 146 110 166 162 20 53 18 80 -36 375 -42 229 -53 327 -70 608
l-11 175 73 140 73 140 3 -55 c1 -35 -7 -88 -22 -145 -13 -49 -23 -92 -20 -94
11 -11 69 28 116 77 121 128 275 401 366 652 38 103 102 324 102 351 0 36 18
19 39 -38 52 -140 90 -323 112 -528 6 -60 13 -112 14 -113 10 -11 60 224 77
363 19 162 17 690 -5 865 -78 635 -299 1204 -619 1598 -143 175 -374 386 -587
536 -512 359 -1086 565 -1715 616 -117 9 -442 11 -541 3z m501 -23 c491 -38
976 -174 1351 -377 353 -191 558 -343 804 -594 265 -270 409 -488 537 -809
244 -614 326 -1283 236 -1920 -9 -63 -19 -121 -23 -127 -4 -7 -14 41 -24 107
-30 210 -117 510 -148 510 -8 0 -17 -27 -44 -130 -72 -283 -201 -577 -351
-802 -56 -83 -159 -197 -169 -187 -1 2 5 36 15 74 26 95 25 235 0 235 -4 0
-38 -60 -75 -132 -37 -73 -69 -134 -70 -136 -1 -1 0 35 2 80 9 196 51 458 109
683 25 95 44 139 44 102 0 -21 56 -197 82 -260 12 -26 26 -46 32 -44 30 10
112 358 142 607 17 144 16 380 -3 414 -7 13 -10 -29 -10 -146 -1 -210 -49
-549 -105 -733 -23 -77 -32 -88 -41 -57 -3 9 -19 55 -35 102 -17 47 -57 200
-90 340 -33 140 -85 334 -115 430 -31 96 -70 225 -87 285 -17 61 -45 152 -62
203 -16 51 -28 95 -27 96 2 2 36 19 74 39 39 19 81 45 95 57 31 27 26 25 -84
-28 -48 -24 -90 -41 -93 -39 -2 3 -24 60 -48 128 -39 113 -267 735 -330 904
-14 39 -28 77 -31 85 -11 30 -24 -17 -34 -117 -5 -54 -15 -116 -21 -138 -17
-61 -93 -255 -124 -316 -32 -63 -168 -284 -233 -379 -146 -211 -549 -645 -747
-803 -82 -66 -187 -138 -192 -134 -1 2 13 59 32 127 63 223 168 737 214 1040
75 494 143 1071 129 1085 -3 3 -75 -61 -159 -142 -323 -311 -434 -410 -710
-630 -141 -112 -353 -257 -368 -251 -6 1 -66 58 -135 126 l-124 123 68 142
c81 170 111 239 107 243 -2 2 -39 -47 -82 -109 -81 -115 -153 -207 -164 -207
-3 0 -24 17 -46 39 -45 43 -112 91 -129 91 -6 0 27 -37 72 -83 l82 -83 -52
-59 c-299 -341 -697 -712 -949 -885 l-86 -59 -52 -141 c-62 -170 -125 -392
-150 -530 -12 -61 -36 -263 -47 -382 l-6 -78 -40 32 c-59 46 -103 120 -142
238 -42 126 -56 244 -56 479 l-1 166 -28 -56 c-16 -30 -43 -92 -61 -138 -26
-66 -36 -81 -49 -75 -9 4 -46 9 -83 12 -81 5 -137 -17 -240 -96 l-66 -51 -26
62 c-59 140 -81 341 -73 647 10 336 28 411 163 680 108 214 191 339 349 529
407 488 800 760 1365 948 440 145 969 209 1436 173z m451 -817 c-6 -79 -41
-347 -98 -753 -70 -498 -211 -1189 -278 -1357 -11 -29 -17 -53 -13 -53 14 0
169 99 241 153 112 85 203 171 355 336 183 197 302 341 399 478 225 321 334
545 381 783 l22 113 142 -386 c156 -424 244 -669 240 -673 -24 -21 -868 -334
-904 -334 -2 0 -4 19 -5 43 -1 23 -4 53 -8 67 -6 20 -9 15 -14 -30 -4 -30 -7
-70 -7 -88 0 -29 3 -32 20 -27 25 8 25 9 -5 -60 -14 -32 -24 -59 -22 -61 2 -3
16 13 31 34 14 21 40 52 57 68 l31 29 -37 -58 c-185 -292 -264 -718 -181 -974
36 -112 79 -174 133 -193 39 -13 51 -12 145 9 137 30 184 52 241 113 116 124
197 406 197 688 0 208 -40 373 -117 489 -24 35 -42 65 -41 66 2 1 24 9 50 19
l47 17 63 -42 c84 -56 246 -221 280 -285 53 -99 62 -158 62 -399 0 -255 -5
-284 -79 -514 -30 -91 -53 -167 -51 -168 6 -6 99 202 133 295 45 126 63 247
63 427 0 169 -21 297 -64 391 -31 67 -138 181 -249 265 -63 47 -75 60 -60 65
10 4 80 33 157 66 76 33 140 57 142 55 3 -2 31 -92 63 -198 33 -107 88 -291
124 -409 36 -118 81 -288 102 -376 l36 -162 -44 -178 c-93 -371 -125 -663
-107 -972 15 -241 36 -450 66 -655 32 -214 35 -320 12 -363 -43 -78 -150 -160
-384 -293 -309 -177 -733 -319 -1269 -425 -234 -47 -326 -56 -578 -56 -360 0
-490 24 -851 155 -274 99 -513 213 -696 330 -130 83 -519 444 -624 579 -76 96
-197 281 -254 386 -42 77 -83 201 -101 304 -6 33 -12 61 -14 62 -1 2 -31 -11
-66 -29 -84 -41 -178 -49 -237 -19 -115 59 -388 318 -441 417 -36 69 -78 198
-87 270 -20 144 89 475 219 670 60 90 86 117 160 170 91 65 137 85 195 85 61
0 108 -22 177 -84 47 -43 51 -49 57 -106 17 -149 72 -296 145 -388 37 -46 93
-92 112 -92 3 0 12 62 18 138 26 295 63 476 157 765 74 226 79 234 181 307
117 84 251 191 343 275 183 167 485 469 591 592 54 63 75 75 85 49 11 -29
-190 -345 -358 -563 -43 -57 -75 -103 -71 -103 16 0 420 203 568 285 l155 86
45 -37 c25 -21 45 -42 45 -46 0 -4 -14 -8 -30 -8 -47 0 -176 -28 -260 -57
-184 -63 -305 -145 -416 -284 -186 -234 -245 -399 -243 -689 1 -85 5 -168 9
-185 7 -28 8 -28 9 12 2 75 31 261 56 361 50 195 97 290 220 437 174 210 327
290 625 328 l105 13 43 -35 c23 -19 42 -38 42 -42 0 -4 -15 -13 -32 -20 -95
-38 -313 -316 -420 -534 -64 -131 -85 -206 -97 -345 -16 -195 1 -254 108 -389
87 -109 129 -139 211 -151 153 -22 298 44 385 175 139 210 204 694 131 975 -8
30 -13 57 -11 58 2 2 20 -9 40 -25 44 -34 95 -114 102 -160 8 -50 21 -49 28 2
8 50 11 52 36 29 16 -15 19 -14 31 5 18 29 23 27 38 -19 7 -22 16 -40 20 -40
9 0 75 169 91 233 22 88 3 68 -39 -42 -38 -99 -62 -136 -62 -98 0 6 -5 19 -10
27 -7 12 -13 11 -34 -9 -18 -17 -29 -21 -38 -14 -217 165 -539 436 -628 528
-60 62 -63 68 -46 78 57 35 284 200 366 266 206 165 468 399 670 598 69 67
127 123 129 123 2 0 1 -39 -2 -87z m-1438 -525 c-49 -99 -45 -94 -63 -78 -13
10 -7 22 42 86 31 41 58 74 60 74 1 0 -16 -37 -39 -82z m169 -401 c-168 -102
-607 -327 -587 -300 8 10 46 61 85 113 104 139 207 295 247 376 l36 71 126
-120 126 -120 -33 -20z m414 -334 c26 -21 52 -49 57 -63 38 -87 67 -427 56
-650 -5 -104 -13 -152 -32 -210 -67 -206 -204 -352 -329 -352 -63 0 -155 37
-208 83 -59 53 -85 116 -93 231 -17 275 105 604 332 887 95 120 140 135 217
74z m1731 -383 c78 -68 119 -223 119 -445 1 -288 -70 -543 -187 -673 -84 -94
-217 -137 -294 -97 -35 18 -84 90 -108 159 -15 41 -18 82 -17 211 0 148 3 169
32 277 43 156 102 306 157 398 68 115 101 147 175 175 36 13 70 24 77 24 7 1
28 -12 46 -29z m-4364 -2078 c3 -138 -37 -300 -105 -432 -86 -166 -99 -181
-65 -74 63 199 66 464 6 634 l-14 40 89 -68 c80 -60 89 -70 89 -100z m1358
-1315 c15 -23 50 -78 78 -122 28 -44 89 -141 135 -215 123 -200 204 -322 208
-311 7 21 -195 365 -351 596 -23 33 -33 54 -24 46 10 -7 37 -43 60 -80 71
-108 161 -251 202 -321 35 -58 241 -379 251 -389 2 -2 6 -2 9 1 5 4 -46 96
-137 251 -20 34 -44 76 -54 92 -9 17 -49 80 -88 140 -88 134 -88 135 -83 135
3 0 98 -140 212 -311 113 -171 209 -309 212 -306 8 9 -130 232 -355 575 -45
68 -76 122 -69 120 6 -3 75 -99 152 -214 210 -314 325 -479 325 -467 0 18
-131 230 -271 438 -74 110 -135 203 -137 207 -2 4 10 0 27 -8 16 -8 42 -36 57
-61 74 -126 405 -606 469 -680 68 -78 41 -22 -61 127 -58 85 -153 227 -211
315 -58 88 -118 179 -134 202 -16 23 -29 44 -29 48 0 18 34 -25 96 -123 146
-229 267 -401 332 -470 25 -27 12 10 -16 47 -24 30 -202 298 -254 381 -8 14
-32 51 -52 82 -20 32 -31 55 -24 52 7 -3 52 -65 101 -137 48 -73 128 -188 177
-257 50 -69 98 -136 108 -150 38 -56 102 -137 117 -150 29 -24 -50 109 -152
255 -19 28 -25 39 -13 25 12 -14 28 -34 36 -44 7 -11 17 -17 20 -13 4 4 1 15
-7 24 -9 10 -39 59 -69 108 -29 50 -80 130 -113 178 -33 48 -57 90 -55 93 5 4
58 -72 170 -247 70 -108 182 -252 186 -239 2 5 -22 49 -53 97 -180 277 -228
354 -222 359 6 6 57 -66 162 -231 188 -292 254 -389 262 -381 3 3 -21 49 -52
103 -32 54 -72 123 -88 153 -16 30 -72 117 -124 193 -52 75 -90 137 -84 137 5
0 51 -62 102 -137 51 -76 112 -165 135 -199 24 -34 40 -64 36 -68 -4 -4 -2 -6
4 -4 6 2 39 -34 74 -79 34 -46 64 -83 66 -83 12 0 -73 138 -218 353 -66 98
-117 181 -115 184 8 7 32 -23 102 -127 35 -52 99 -147 142 -210 43 -63 77
-118 75 -122 -1 -5 2 -7 7 -5 5 1 25 -16 46 -38 20 -23 31 -31 25 -18 -19 41
-131 216 -226 356 -52 75 -90 137 -85 137 5 0 23 -21 39 -47 17 -27 54 -82 83
-123 29 -41 78 -113 110 -160 69 -104 154 -212 145 -185 -4 11 -27 49 -50 85
-141 213 -194 292 -234 348 -24 34 -40 62 -34 62 5 0 60 -78 123 -172 135
-205 195 -290 216 -302 19 -11 18 -8 -58 104 -97 143 -220 343 -214 348 3 3 6
3 8 1 1 -2 33 -49 69 -104 61 -91 168 -246 210 -305 32 -44 28 -15 -5 36 -18
27 -36 57 -42 67 -35 58 -161 255 -173 270 -8 9 -13 20 -10 23 3 3 38 -44 78
-103 115 -172 184 -266 188 -255 3 11 -102 192 -170 295 -21 31 -34 57 -29 57
6 0 42 -48 80 -107 109 -167 134 -198 151 -188 5 3 -22 69 -60 145 -39 77 -66
140 -60 140 5 0 22 -24 36 -52 35 -70 105 -180 111 -175 2 3 -19 51 -47 107
-27 57 -50 104 -50 106 0 13 20 1 25 -15 10 -31 84 -141 95 -141 7 0 7 6 0 18
-32 58 -69 142 -62 142 4 0 22 -28 40 -62 25 -48 31 -56 28 -33 -2 17 -8 45
-14 62 -16 49 4 50 28 1 l20 -43 -5 43 c-5 42 -5 42 26 42 21 0 30 -4 26 -12
-3 -7 -26 -64 -51 -126 -65 -160 -126 -348 -133 -408 -10 -89 3 -135 62 -224
l55 -81 0 -127 c0 -70 -3 -198 -7 -284 l-6 -157 -61 43 c-133 95 -350 194
-566 259 -268 81 -525 105 -770 73 -100 -14 -215 -37 -252 -51 -14 -6 -24 16
-63 137 -74 228 -195 707 -195 769 0 22 4 25 41 25 58 0 97 45 130 145 l24 76
108 -103 c98 -94 147 -134 147 -119 0 8 -132 155 -189 210 -28 27 -51 56 -51
65 0 8 74 -59 165 -150 90 -90 166 -162 169 -160 5 5 -119 152 -240 287 -41
45 -74 86 -74 91 0 5 46 -38 103 -95 56 -58 101 -108 100 -112 -1 -4 7 -8 18
-8 14 -1 -2 24 -63 100 -45 56 -85 104 -88 107 -38 36 -60 69 -54 83 4 12 21
-3 64 -61 94 -125 138 -181 224 -287 45 -55 118 -145 163 -200 80 -98 133
-155 133 -142 0 17 -209 300 -482 652 -85 109 -106 142 -72 114 14 -11 177
-217 276 -348 18 -24 54 -66 79 -95 25 -28 55 -64 68 -81 37 -49 103 -117 108
-111 3 3 -9 22 -26 43 -17 21 -113 147 -213 280 -101 133 -209 276 -241 318
-38 49 -57 81 -53 92 5 11 27 -14 79 -88 61 -88 186 -259 215 -294 4 -5 43
-56 86 -113 43 -57 80 -101 83 -98 6 6 -44 87 -161 256 -47 69 -123 179 -167
245 -45 66 -92 133 -106 149 -13 16 -21 31 -19 34 3 3 16 -8 28 -24 51 -64
228 -314 283 -400 87 -137 239 -358 267 -390 49 -55 51 -39 6 34 -60 96 -316
483 -383 577 -31 44 -78 112 -104 150 -27 39 -56 77 -65 84 -9 7 -16 18 -16
23 0 19 92 -55 117 -95z m189 -139 c25 -47 9 -31 -30 30 -25 38 -29 47 -11 27
14 -16 33 -42 41 -57z m-386 -43 c0 -3 -18 -79 -41 -168 -60 -240 -75 -267
-153 -267 -34 0 -35 1 -41 48 -10 76 -13 80 -14 22 -2 -123 38 -317 134 -658
74 -260 109 -365 237 -722 85 -237 125 -334 181 -435 130 -238 251 -429 451
-714 l85 -121 -117 59 c-200 100 -405 168 -579 191 -102 14 -148 3 -244 -56
l-71 -44 -62 49 c-111 89 -290 289 -371 415 -40 63 -110 205 -275 561 -260
558 -414 872 -491 1000 -46 76 -143 201 -166 214 -11 6 94 63 353 193 425 213
626 300 833 363 175 53 351 88 351 70z m873 -251 c64 -96 114 -173 109 -170
-5 3 -22 24 -38 48 -16 24 -61 88 -100 143 -92 130 -108 155 -98 155 5 0 62
-79 127 -176z m1900 59 c14 -147 72 -308 158 -435 58 -86 141 -192 200 -256
27 -29 49 -54 49 -56 0 -9 -147 -15 -215 -9 l-78 6 -86 72 c-105 88 -163 151
-269 290 -26 34 -74 119 -97 169 -27 59 -75 182 -75 191 0 3 10 5 23 6 12 0
99 20 192 44 94 23 175 43 181 44 7 1 14 -27 17 -66z m-1283 -143 c6 -11 8
-20 6 -20 -3 0 -10 9 -16 20 -6 11 -8 20 -6 20 3 0 10 -9 16 -20z m28 -55 c-3
-3 -9 2 -12 12 -6 14 -5 15 5 6 7 -7 10 -15 7 -18z m47 -75 c9 -16 13 -30 11
-30 -3 0 -12 14 -21 30 -9 17 -13 30 -11 30 3 0 12 -13 21 -30z m56 -95 l10
-20 -16 20 c-9 11 -21 29 -26 40 l-10 20 16 -20 c9 -11 21 -29 26 -40z"/>
<path d="M7163 8280 c0 -25 2 -35 4 -22 2 12 2 32 0 45 -2 12 -4 2 -4 -23z"/>
<path d="M5132 8121 c-16 -45 -15 -50 4 -23 8 12 14 30 12 40 -3 11 -8 6 -16
-17z"/>
<path d="M4670 8095 c0 -8 2 -15 4 -15 2 0 6 7 10 15 3 8 1 15 -4 15 -6 0 -10
-7 -10 -15z"/>
<path d="M5232 8065 c-7 -14 -12 -31 -12 -38 1 -7 7 3 16 22 17 39 13 54 -4
16z"/>
<path d="M5053 7934 c-13 -24 -23 -49 -23 -55 0 -7 11 10 25 36 14 26 25 51
23 55 -2 4 -13 -12 -25 -36z"/>
<path d="M7090 7913 c-6 -21 -16 -48 -22 -60 -6 -11 -8 -27 -6 -34 2 -7 14 18
26 56 13 37 21 70 18 72 -2 2 -9 -13 -16 -34z"/>
<path d="M5140 7880 c0 -5 5 -10 11 -10 5 0 7 5 4 10 -3 6 -8 10 -11 10 -2 0
-4 -4 -4 -10z"/>
<path d="M4470 7800 c-6 -12 -9 -24 -7 -27 3 -2 11 5 17 17 6 12 9 24 7 27 -3
2 -11 -5 -17 -17z"/>
<path d="M5075 7770 c-10 -11 -14 -20 -9 -20 5 0 15 9 22 20 7 11 11 20 9 20
-2 0 -12 -9 -22 -20z"/>
<path d="M6912 7747 c-7 -19 -12 -40 -12 -48 1 -8 8 6 16 29 9 24 14 46 12 48
-2 2 -10 -11 -16 -29z"/>
<path d="M4430 7745 c-8 -9 -8 -15 -2 -15 12 0 26 19 19 26 -2 2 -10 -2 -17
-11z"/>
<path d="M6886 7671 c3 -13 2 -21 -2 -18 -5 3 -10 -7 -11 -21 l-1 -27 14 28
c11 20 12 32 4 45 -9 14 -10 13 -4 -7z"/>
<path d="M4380 7671 c0 -6 4 -13 10 -16 6 -3 7 1 4 9 -7 18 -14 21 -14 7z"/>
<path d="M3361 7614 c0 -11 3 -14 6 -6 3 7 2 16 -1 19 -3 4 -6 -2 -5 -13z"/>
<path d="M6851 7594 c0 -11 3 -14 6 -6 3 7 2 16 -1 19 -3 4 -6 -2 -5 -13z"/>
<path d="M3322 7525 c-17 -37 -14 -45 4 -12 9 16 14 31 11 33 -2 2 -9 -7 -15
-21z"/>
<path d="M4280 7529 c0 -5 5 -7 10 -4 6 3 10 8 10 11 0 2 -4 4 -10 4 -5 0 -10
-5 -10 -11z"/>
<path d="M4126 7392 l-19 -27 26 24 c28 26 32 31 20 31 -5 0 -17 -13 -27 -28z"/>
<path d="M3261 7372 c-6 -12 -11 -27 -11 -34 1 -7 8 0 16 15 9 16 13 31 11 34
-3 2 -10 -4 -16 -15z"/>
<path d="M8286 7377 c3 -10 9 -15 12 -12 3 3 0 11 -7 18 -10 9 -11 8 -5 -6z"/>
<path d="M3950 7370 c0 -5 5 -10 10 -10 6 0 10 5 10 10 0 6 -4 10 -10 10 -5 0
-10 -4 -10 -10z"/>
<path d="M4052 7320 c-18 -17 -29 -30 -24 -30 5 0 21 14 37 30 37 38 30 38
-13 0z"/>
<path d="M8056 7325 c8 -37 14 -45 14 -19 0 10 -5 26 -10 34 -8 11 -9 7 -4
-15z"/>
<path d="M8311 7334 c-1 -11 6 -29 15 -40 8 -10 12 -13 9 -6 -4 8 -11 26 -15
40 -7 22 -8 23 -9 6z"/>
<path d="M3889 7303 l-24 -26 27 19 c15 10 28 22 28 27 0 12 -5 8 -31 -20z"/>
<path d="M8077 7257 c-3 -7 1 -35 9 -63 l14 -49 -5 45 c-3 25 -5 53 -6 63 0
20 -5 22 -12 4z"/>
<path d="M8346 7245 c8 -37 14 -45 14 -19 0 10 -5 26 -10 34 -8 11 -9 7 -4
-15z"/>
<path d="M3210 7239 c0 -5 5 -7 10 -4 6 3 10 8 10 11 0 2 -4 4 -10 4 -5 0 -10
-5 -10 -11z"/>
<path d="M3201 7204 c0 -11 3 -14 6 -6 3 7 2 16 -1 19 -3 4 -6 -2 -5 -13z"/>
<path d="M8366 7163 c4 -21 11 -48 15 -61 5 -13 9 -35 10 -50 0 -15 3 -21 6
-13 3 7 -2 47 -12 87 -18 77 -31 102 -19 37z"/>
<path d="M3036 7074 c-3 -26 -4 -49 -2 -52 3 -2 8 17 11 43 4 25 5 48 3 51 -3
2 -8 -17 -12 -42z"/>
<path d="M8103 7075 c0 -27 3 -81 7 -120 7 -68 7 -69 7 -15 0 30 -3 84 -7 120
-7 61 -7 62 -7 15z"/>
<path d="M3167 7096 c-4 -10 -7 -25 -6 -34 0 -11 4 -9 10 7 5 13 8 29 6 35 -2
5 -6 2 -10 -8z"/>
<path d="M8171 7044 c0 -11 3 -14 6 -6 3 7 2 16 -1 19 -3 4 -6 -2 -5 -13z"/>
<path d="M3152 7020 c0 -14 2 -19 5 -12 2 6 2 18 0 25 -3 6 -5 1 -5 -13z"/>
<path d="M3023 6965 c0 -27 2 -38 4 -22 2 15 2 37 0 50 -2 12 -4 0 -4 -28z"/>
<path d="M8180 6984 c0 -16 5 -36 11 -44 7 -11 8 -4 3 25 -8 50 -14 58 -14 19z"/>
<path d="M8402 6955 c0 -16 2 -22 5 -12 2 9 2 23 0 30 -3 6 -5 -1 -5 -18z"/>
<path d="M8410 6837 c0 -36 4 -69 10 -72 6 -4 7 19 3 62 -8 89 -13 93 -13 10z"/>
<path d="M8196 6855 c-3 -9 -5 -38 -5 -63 2 -46 2 -46 9 13 7 64 6 76 -4 50z"/>
<path d="M2641 6844 c0 -11 3 -14 6 -6 3 7 2 16 -1 19 -3 4 -6 -2 -5 -13z"/>
<path d="M4122 6293 c-35 -67 -47 -132 -47 -245 1 -158 20 -178 28 -31 4 59
14 148 22 197 15 91 14 112 -3 79z"/>
<path d="M4030 6114 c-14 -36 -11 -124 5 -159 12 -28 13 -22 14 78 1 59 -1
107 -4 107 -3 0 -10 -12 -15 -26z"/>
<path d="M2758 5865 c-91 -33 -219 -156 -277 -265 -37 -68 -61 -170 -60 -250
1 -51 2 -47 20 50 23 120 57 191 144 300 84 104 163 150 255 150 60 0 119 -27
148 -67 l20 -28 -51 4 c-28 2 -67 -2 -88 -8 -100 -30 -235 -247 -247 -398 -3
-43 -1 -63 7 -63 6 0 11 18 11 43 0 103 69 246 163 334 64 61 111 77 182 64
66 -12 71 -27 25 -72 -34 -33 -58 -90 -50 -115 1 -3 -9 -18 -23 -32 -14 -15
-32 -41 -41 -59 -33 -66 -11 -265 40 -363 48 -91 78 -111 34 -22 -54 108 -82
262 -60 341 17 64 64 106 139 127 l62 17 -7 46 c-28 190 -198 320 -346 266z
m316 -256 c6 -34 4 -37 -21 -42 -16 -3 -36 -9 -45 -12 -35 -14 -9 60 32 92 19
15 26 7 34 -38z"/>
<path d="M7681 5509 c-5 -14 -41 -88 -79 -167 -39 -78 -69 -142 -67 -142 8 0
83 116 113 175 32 64 57 143 48 152 -3 3 -10 -5 -15 -18z"/>
<path d="M7700 5397 c-14 -28 -39 -75 -57 -104 -17 -29 -28 -53 -24 -53 11 0
77 72 92 100 15 30 29 99 20 104 -3 2 -17 -19 -31 -47z"/>
<path d="M3637 5078 c-58 -185 -42 -278 48 -278 61 0 85 41 85 144 0 92 -16
101 -22 12 -7 -111 -42 -152 -88 -106 -25 25 -26 91 -5 215 9 48 14 89 12 92
-2 2 -16 -34 -30 -79z"/>
<path d="M4640 4793 c-97 -64 -227 -230 -314 -401 -44 -88 -151 -358 -217
-553 -57 -166 -63 -192 -63 -264 0 -62 5 -91 22 -130 44 -96 187 -198 323
-229 136 -32 385 -56 794 -76 310 -16 404 -34 765 -152 224 -73 271 -79 320
-46 46 31 62 76 106 301 62 316 133 627 174 762 56 184 70 250 70 331 0 57 -4
77 -23 105 -63 94 -237 157 -707 258 -322 69 -646 107 -995 117 l-210 6 -45
-29z m620 -17 c252 -25 547 -76 825 -142 207 -49 383 -112 440 -158 l30 -25
-40 -41 c-78 -82 -107 -86 -263 -35 -107 34 -387 105 -597 150 -225 49 -498
74 -895 83 l-275 7 69 72 c109 115 112 116 356 109 113 -3 270 -12 350 -20z
m-1080 -1080 c20 -143 94 -271 234 -404 42 -39 70 -72 63 -72 -66 0 -240 84
-310 148 -91 85 -104 151 -66 335 11 55 23 105 26 111 14 22 42 -38 53 -118z
m957 99 c172 -24 361 -78 501 -141 216 -98 374 -267 461 -494 30 -78 59 -196
50 -205 -7 -6 -107 24 -312 95 -233 79 -337 96 -742 120 -192 12 -390 25 -440
30 -49 5 -95 10 -102 10 -20 0 -140 109 -197 179 -30 37 -71 94 -91 127 -40
65 -72 161 -59 174 25 25 320 93 465 109 134 14 355 12 466 -4z m1035 -315
c27 -29 62 -79 78 -111 37 -72 80 -202 80 -240 0 -35 -35 -131 -58 -159 -21
-25 -80 -38 -86 -19 -2 8 -13 53 -24 100 -32 138 -109 286 -209 404 l-34 40
48 23 c37 18 61 22 102 19 52 -4 58 -7 103 -57z"/>
<path d="M7440 3720 c0 -46 -17 -105 -34 -119 -34 -28 -71 29 -64 98 5 61 -10
34 -18 -29 -5 -47 -3 -59 16 -82 37 -47 92 -32 110 30 12 46 13 102 0 122 -7
11 -10 6 -10 -20z"/>
<path d="M1050 1606 c0 -3 24 -21 54 -41 29 -19 88 -69 130 -111 56 -55 73
-67 62 -45 -25 47 -118 132 -185 169 -34 18 -61 31 -61 28z"/>
<path d="M1413 1270 c3 -8 24 -58 47 -110 45 -101 137 -374 291 -862 79 -252
96 -298 112 -298 11 0 17 5 14 12 -2 7 -75 229 -161 493 -163 497 -224 658
-277 735 -17 25 -29 38 -26 30z"/>
<path d="M7541 310 c-7 -30 -35 -111 -62 -179 -55 -138 -52 -131 -40 -131 20
0 124 295 119 337 -2 23 -6 17 -17 -27z"/>
<path d="M4878 64 c-29 -15 -54 -51 -43 -62 3 -3 17 7 30 23 22 28 27 30 92
29 37 -1 117 -13 176 -28 127 -30 176 -33 97 -5 -71 25 -237 59 -287 59 -21
-1 -50 -7 -65 -16z"/>
</g>
</svg>
